<svg xmlns="http://www.w3.org/2000/svg" width="145" height="145" viewBox="0 0 145 145">
    <g id="Group_473" data-name="Group 473" transform="translate(-999 -394)">
        <circle id="Ellipse_19" data-name="Ellipse 19" cx="72.5" cy="72.5" r="72.5" transform="translate(999 394)" fill="#007ea0" opacity="0.104"/>
        <g id="enter" transform="translate(1037 437)">
            <path id="Path_239" data-name="Path 239" d="M207.775,1.1a2.549,2.549,0,0,0-2.1-1.1h-27.37a7.648,7.648,0,0,0-7.638,7.638V9.622c.1.09.214.158.308.255L181.16,20.061a7.635,7.635,0,0,1,0,10.8L170.976,41.046c-.094.094-.208.163-.308.255v4.53a7.648,7.648,0,0,0,7.638,7.638h8.911a2.541,2.541,0,0,0,2.378-1.64L208.055,3.453a2.542,2.542,0,0,0-.28-2.35Zm0,0" transform="translate(-150.299 0)" fill="#007ea0"/>
            <path id="Path_240" data-name="Path 240" d="M14.3,131.931a2.55,2.55,0,0,1-1.571-2.352V121.94H2.546a2.546,2.546,0,0,1,0-5.092H12.731v-7.638a2.545,2.545,0,0,1,4.346-1.8l10.184,10.184a2.543,2.543,0,0,1,0,3.6L17.077,131.378a2.546,2.546,0,0,1-2.775.552Zm0,0" transform="translate(0 -93.933)" fill="#607d8b"/>
            <path id="Path_241" data-name="Path 241" d="M317.414.312l-15.3,5.1a5.117,5.117,0,0,0-3.45,4.832v45.83a5.1,5.1,0,0,0,5.092,5.092,5.341,5.341,0,0,0,1.622-.252l15.3-5.1a5.117,5.117,0,0,0,3.45-4.832V5.153a5.126,5.126,0,0,0-6.714-4.84Zm0,0" transform="translate(-263.022 -0.06)" fill="#00b3e3"/>
        </g>
    </g>
</svg>
