<svg xmlns="http://www.w3.org/2000/svg" width="63.538" height="65" viewBox="0 0 63.538 65">
    <g id="logout_2_" data-name="logout (2)" transform="translate(-21.734 -21.734)">
        <path id="Path_173" data-name="Path 173" d="M177.732,146.533a2.649,2.649,0,0,1-2.649-2.649v-7.942a2.651,2.651,0,0,0-2.649-2.649H143.977a2.647,2.647,0,1,1,0-5.294h28.461a7.95,7.95,0,0,1,7.942,7.942v7.942a2.649,2.649,0,0,1-2.649,2.649Zm0,0" transform="translate(-116.286 -106.266)" fill="#ff2424" opacity="0.4"/>
        <path id="Path_174" data-name="Path 174" d="M230.585,287.826h-9.265a2.649,2.649,0,0,1,0-5.3h9.265a2.651,2.651,0,0,0,2.649-2.649V269.289a2.649,2.649,0,0,1,5.3,0v10.595a7.956,7.956,0,0,1-7.946,7.942Zm0,0" transform="translate(-174.434 -210.496)" fill="#ff2424" opacity="0.4"/>
        <g id="Group_309" data-name="Group 309" transform="translate(21.734 23.196)">
            <path id="Path_175" data-name="Path 175" d="M150.866,133.551l-15.928-5.305a5.426,5.426,0,0,0-1.644-.246A5.3,5.3,0,0,0,128,133.293v47.654a5.349,5.349,0,0,0,3.606,5.036L147.55,191.3a5.466,5.466,0,0,0,1.628.242,5.3,5.3,0,0,0,5.294-5.294V138.591a5.336,5.336,0,0,0-3.606-5.04Zm0,0" transform="translate(-128 -128)" fill="#ff2424"/>
            <path id="Path_176" data-name="Path 176" d="M281.527,207.606a2.645,2.645,0,0,1-1.632-2.446v-7.942H269.3a2.647,2.647,0,1,1,0-5.294H279.9v-7.942a2.645,2.645,0,0,1,4.519-1.87L295.006,192.7a2.65,2.65,0,0,1,0,3.744l-10.591,10.591A2.66,2.66,0,0,1,281.527,207.606Zm0,0" transform="translate(-232.242 -168.097)" fill="#ff2424"/>
        </g>
    </g>
</svg>
